<svg width="1440" height="2518" viewBox="0 0 1440 2518" fill="none" xmlns="http://www.w3.org/2000/svg">
<g filter="url(#filter0_f_398_165)">
<ellipse cx="-288" cy="-80.5" rx="550" ry="156.5" transform="rotate(-180 -288 -80.5)" fill="url(#paint0_linear_398_165)" fill-opacity="0.6"/>
</g>
<defs>
<filter id="filter0_f_398_165" x="-1038" y="-437" width="1500" height="713" filterUnits="userSpaceOnUse" color-interpolation-filters="sRGB">
<feFlood flood-opacity="0" result="BackgroundImageFix"/>
<feBlend mode="normal" in="SourceGraphic" in2="BackgroundImageFix" result="shape"/>
<feGaussianBlur stdDeviation="100" result="effect1_foregroundBlur_398_165"/>
</filter>
<linearGradient id="paint0_linear_398_165" x1="-797.5" y1="-81.0002" x2="261.687" y2="-99.2205" gradientUnits="userSpaceOnUse">
<stop stop-color="#D26B54"/>
<stop offset="1" stop-color="#2B3DE0"/>
</linearGradient>
</defs>

<rect x="0.0297852" y="1024" width="1440" height="1494" fill="#F3F4F5"/>
<rect x="0.0297852" width="1440" height="680" fill="black"/>
<line x1="1440.03" y1="90.5" x2="0.0297852" y2="90.5" stroke="#484B5B"/>
<line x1="1440.03" y1="270.5" x2="0.0297852" y2="270.5" stroke="#484B5B"/>
<line x1="1440.03" y1="450.5" x2="0.0297852" y2="450.5" stroke="#484B5B"/>
<line x1="1440.03" y1="630.5" x2="0.0297852" y2="630.5" stroke="#484B5B"/>
<line x1="1440.03" y1="180.5" x2="0.0297852" y2="180.5" stroke="#484B5B"/>
<line x1="1440.03" y1="360.5" x2="0.0297852" y2="360.5" stroke="#484B5B"/>
<line x1="1440.03" y1="540.5" x2="0.0297852" y2="540.5" stroke="#484B5B"/>
<line x1="1350.53" y1="2.18557e-08" x2="1350.53" y2="680" stroke="#484B5B"/>
<line x1="720.53" y1="2.18557e-08" x2="720.53" y2="680" stroke="#484B5B"/>
<line x1="1170.53" y1="2.18557e-08" x2="1170.53" y2="680" stroke="#484B5B"/>
<line x1="540.53" y1="2.18557e-08" x2="540.53" y2="680" stroke="#484B5B"/>
<line x1="900.53" y1="2.18557e-08" x2="900.53" y2="680" stroke="#484B5B"/>
<line x1="270.53" y1="2.18557e-08" x2="270.53" y2="680" stroke="#484B5B"/>
<line x1="1260.53" y1="2.18557e-08" x2="1260.53" y2="680" stroke="#484B5B"/>
<line x1="630.53" y1="2.18557e-08" x2="630.53" y2="680" stroke="#484B5B"/>
<line x1="990.53" y1="2.18557e-08" x2="990.53" y2="680" stroke="#484B5B"/>
<line x1="360.53" y1="2.18557e-08" x2="360.53" y2="680" stroke="#484B5B"/>
<line x1="1080.53" y1="2.18557e-08" x2="1080.53" y2="680" stroke="#484B5B"/>
<line x1="450.53" y1="2.18557e-08" x2="450.53" y2="680" stroke="#484B5B"/>
<line x1="810.53" y1="2.18557e-08" x2="810.53" y2="680" stroke="#484B5B"/>
<line x1="180.53" y1="2.18557e-08" x2="180.53" y2="680" stroke="#484B5B"/>
<line x1="90.5298" y1="2.18557e-08" x2="90.5298" y2="680" stroke="#484B5B"/>
<rect x="1.02979" width="1440" height="680" fill="url(#paint0_radial_398_85)" fill-opacity="0.9"/>
<mask id="mask0_398_85" style="mask-type:alpha" maskUnits="userSpaceOnUse" x="282" y="437" width="1159" height="243">
<rect x="282.03" y="437" width="1158" height="243" fill="#D9D9D9"/>
</mask>
<g mask="url(#mask0_398_85)">
<g filter="url(#filter0_f_398_85)">
<ellipse cx="985.03" cy="760.5" rx="550" ry="156.5" fill="url(#paint1_linear_398_85)" fill-opacity="0.6"/>
</g>
</g>
<defs>
<filter id="filter0_f_398_85" x="235.03" y="404" width="1500" height="713" filterUnits="userSpaceOnUse" color-interpolation-filters="sRGB">
<feFlood flood-opacity="0" result="BackgroundImageFix"/>
<feBlend mode="normal" in="SourceGraphic" in2="BackgroundImageFix" result="shape"/>
<feGaussianBlur stdDeviation="100" result="effect1_foregroundBlur_398_85"/>
</filter>
<radialGradient id="paint0_radial_398_85" cx="0" cy="0" r="1" gradientUnits="userSpaceOnUse" gradientTransform="translate(365.53 318) scale(660 1397.65)">
<stop offset="0.25"/>
<stop offset="1" stop-opacity="0.4"/>
</radialGradient>
<linearGradient id="paint1_linear_398_85" x1="475.53" y1="760" x2="1534.72" y2="741.78" gradientUnits="userSpaceOnUse">
<stop stop-color="#D26B54"/>
<stop offset="1" stop-color="#2B3DE0"/>
</linearGradient>
</defs>
</svg>
